<svg xmlns="http://www.w3.org/2000/svg" viewBox="0 0 90.7781 25"><defs><style>.a{fill:#fff;}.b{fill:#4d5153;}.c{fill:#ed1c5a;}</style></defs><title>mapbox</title><path class="a" d="M5.3272,12.3913c-.12.0731-.2435.1387-.3609.2174C5.0838,12.53,5.2071,12.4644,5.3272,12.3913Z" transform="translate(0 0)"/><path class="a" d="M4.4492,12.4005c-.0878.0679-.18.1277-.2659.199C4.2693,12.5282,4.3614,12.4684,4.4492,12.4005Z" transform="translate(0 0)"/><path class="b" d="M44.2438,7.243A5.8634,5.8634,0,0,0,42.46,6.045a5.6313,5.6313,0,0,0-4.7371.1758,5.6317,5.6317,0,0,0-1.6883,1.3368A5.6418,5.6418,0,0,0,34.359,6.2208a5.4412,5.4412,0,0,0-2.5642-.6145,5.5379,5.5379,0,0,0-2.1758.4387,5.6174,5.6174,0,0,0-2.9808,2.97A5.4717,5.4717,0,0,0,26.2,11.2046v5.62h2.74v-5.62a2.8343,2.8343,0,0,1,.8361-2.0222,2.859,2.859,0,0,1,.91-.6145,2.7862,2.7862,0,0,1,1.1093-.2215,2.8924,2.8924,0,0,1,2.0458.836,2.868,2.868,0,0,1,.6159.9129,2.7991,2.7991,0,0,1,.22,1.1093v5.62h2.7386v-5.62a2.7984,2.7984,0,0,1,.2215-1.1108,2.8871,2.8871,0,0,1,1.5274-1.5259,2.7605,2.7605,0,0,1,1.1093-.2215,2.899,2.899,0,0,1,2.0443.836,2.923,2.923,0,0,1,.6145.9129,2.8009,2.8009,0,0,1,.22,1.1093v5.62h2.7415v-5.62a5.4972,5.4972,0,0,0-.4387-2.1891A5.6281,5.6281,0,0,0,44.2438,7.243Z" transform="translate(0 0)"/><path class="a" d="M40.2734,5.6063A5.4782,5.4782,0,0,1,42.46,6.045a5.8652,5.8652,0,0,1,1.7843,1.198,5.6281,5.6281,0,0,1,1.2113,1.7725,5.4972,5.4972,0,0,1,.4387,2.1891v5.62H43.1523v-5.62a2.8009,2.8009,0,0,0-.22-1.1093,2.923,2.923,0,0,0-.6145-.9129,2.899,2.899,0,0,0-2.0443-.836,2.7605,2.7605,0,0,0-1.1093.2215,2.8871,2.8871,0,0,0-1.5274,1.5259,2.7984,2.7984,0,0,0-.2215,1.1108v5.62H34.6766v-5.62a2.7991,2.7991,0,0,0-.22-1.1093A2.85,2.85,0,0,0,32.92,8.5694a2.8391,2.8391,0,0,0-1.1255-.223,2.7862,2.7862,0,0,0-1.1093.2215,2.859,2.859,0,0,0-.91.6145,2.8343,2.8343,0,0,0-.8361,2.0222v5.62H26.2v-5.62a5.4717,5.4717,0,0,1,.4387-2.1891,5.6174,5.6174,0,0,1,2.9808-2.97,5.5379,5.5379,0,0,1,2.1758-.4387,5.4412,5.4412,0,0,1,2.5642.6145,5.6418,5.6418,0,0,1,1.6751,1.3368,5.6317,5.6317,0,0,1,1.6883-1.3368,5.4657,5.4657,0,0,1,2.551-.6145m0-.77a6.2275,6.2275,0,0,0-2.9067.7016,6.4458,6.4458,0,0,0-1.3313.9192,6.42,6.42,0,0,0-1.3182-.918,6.2031,6.2031,0,0,0-2.9224-.7028,6.3011,6.3011,0,0,0-2.4768.5,6.3876,6.3876,0,0,0-3.3873,3.375,6.2375,6.2375,0,0,0-.5014,2.4935v6.3906h4.28V11.2046a2.0335,2.0335,0,0,1,.1592-.807,2.0639,2.0639,0,0,1,.45-.6691,2.1007,2.1007,0,0,1,.6695-.4523,2.0224,2.0224,0,0,1,.8066-.16,2.0575,2.0575,0,0,1,.8264.1626A2.0806,2.0806,0,0,1,33.7491,10.4a2.0329,2.0329,0,0,1,.1573.8048v6.3906h4.279V11.2046a2.0334,2.0334,0,0,1,.1591-.807,2.1157,2.1157,0,0,1,1.1219-1.1212,1.9829,1.9829,0,0,1,.807-.16,2.0905,2.0905,0,0,1,.8217.1618,2.1161,2.1161,0,0,1,.6795.45,2.1515,2.1515,0,0,1,.45.67,2.0349,2.0349,0,0,1,.1576.8056v6.3906h4.282V11.2046a6.2615,6.2615,0,0,0-.5016-2.494,6.3972,6.3972,0,0,0-1.3779-2.0162,6.6359,6.6359,0,0,0-2.0182-1.3559,6.2464,6.2464,0,0,0-2.4929-.5024Z" transform="translate(0 0)"/><path class="b" d="M56.5068,7.243a5.6986,5.6986,0,0,0-1.7711-1.198,5.644,5.644,0,0,0-4.3633,0,5.82,5.82,0,0,0-1.7947,1.1965,5.6049,5.6049,0,0,0-1.2112,1.774,5.64,5.64,0,0,0,0,4.3619,5.6434,5.6434,0,0,0,3.0073,3.0089,5.5256,5.5256,0,0,0,2.1743.4387h5.5953v-5.62a5.4592,5.4592,0,0,0-.4387-2.1876A5.697,5.697,0,0,0,56.5068,7.243Zm-1.1019,6.8419H52.5481a2.8919,2.8919,0,0,1-2.0457-.836,2.7868,2.7868,0,0,1-.613-.9232,2.8526,2.8526,0,0,1-.2216-1.1211,2.7967,2.7967,0,0,1,.2216-1.1108,2.8361,2.8361,0,0,1,1.5332-1.5244,2.8659,2.8659,0,0,1,1.1255-.223,2.7981,2.7981,0,0,1,1.1108.2215,2.8871,2.8871,0,0,1,1.5259,1.5274,2.8009,2.8009,0,0,1,.22,1.1093Z" transform="translate(0 0)"/><path class="a" d="M52.5481,5.6063a5.5111,5.5111,0,0,1,2.1876.4387,5.6325,5.6325,0,0,1,2.969,2.972,5.4592,5.4592,0,0,1,.4387,2.1876v5.62H52.5481a5.5256,5.5256,0,0,1-2.1743-.4387,5.6434,5.6434,0,0,1-3.0073-3.0089,5.6393,5.6393,0,0,1,0-4.3619,5.6049,5.6049,0,0,1,1.2112-1.774A5.82,5.82,0,0,1,50.3724,6.045a5.5374,5.5374,0,0,1,2.1757-.4387m0,8.4786h2.8568v-2.88a2.8009,2.8009,0,0,0-.22-1.1093,2.8871,2.8871,0,0,0-1.5259-1.5274,2.7981,2.7981,0,0,0-1.1108-.2215,2.8919,2.8919,0,0,0-2.0457.836,2.8373,2.8373,0,0,0-.6131.9114,2.7984,2.7984,0,0,0-.2215,1.1108,2.8543,2.8543,0,0,0,.2215,1.1211,2.7886,2.7886,0,0,0,.6131.9232,2.8919,2.8919,0,0,0,2.0457.836m0-9.2488a6.3,6.3,0,0,0-2.4767.5,6.593,6.593,0,0,0-2.0336,1.356,6.371,6.371,0,0,0-1.3786,2.0185,6.41,6.41,0,0,0-.0008,4.97,6.4133,6.4133,0,0,0,3.4122,3.4137,6.29,6.29,0,0,0,2.4775.5009h6.3656V11.2046A6.2264,6.2264,0,0,0,58.4113,8.71a6.4025,6.4025,0,0,0-3.3688-3.3719,6.2823,6.2823,0,0,0-2.4944-.5024Zm0,8.4786a2.1219,2.1219,0,0,1-1.5011-.61,2.0118,2.0118,0,0,1-.447-.6757,2.0945,2.0945,0,0,1-.162-.824,2.0343,2.0343,0,0,1,.1591-.8071,2.1026,2.1026,0,0,1,1.951-1.2809,2.0343,2.0343,0,0,1,.8071.1591,2.1244,2.1244,0,0,1,.669.4513,2.0862,2.0862,0,0,1,.4531.6728,2.0329,2.0329,0,0,1,.1573.8048v2.11Z" transform="translate(0 0)"/><path class="b" d="M68.7446,7.2888a5.8307,5.8307,0,0,0-1.7814-1.1965,5.644,5.644,0,0,0-4.3633,0A5.5779,5.5779,0,0,0,60.8155,7.29a5.6524,5.6524,0,0,0-1.1979,1.7711,5.4794,5.4794,0,0,0-.4387,2.1876V23.29h0a2.74,2.74,0,0,0,2.74-2.74v-3.68h2.8567a5.4592,5.4592,0,0,0,2.1876-.4387,5.6953,5.6953,0,0,0,2.9927-3.0045,5.6477,5.6477,0,0,0,0-4.3648A5.567,5.567,0,0,0,68.7446,7.2888Zm-1.31,5.0856a2.8148,2.8148,0,0,1-.6174.9218,2.8649,2.8649,0,0,1-.9173.613,2.8949,2.8949,0,0,1-1.1241.2215H61.9189V11.2489a2.8215,2.8215,0,0,1,.22-1.1093,2.8817,2.8817,0,0,1,1.5244-1.5259,2.8361,2.8361,0,0,1,1.1122-.22,2.9085,2.9085,0,0,1,1.1226.22,2.8574,2.8574,0,0,1,.92.6145,2.9089,2.9089,0,0,1,.6174.91,2.8324,2.8324,0,0,1,.22,1.1108A2.8951,2.8951,0,0,1,67.4344,12.3744Z" transform="translate(0 0)"/><path class="a" d="M64.7756,5.6536a5.4794,5.4794,0,0,1,2.1876.4387,5.8307,5.8307,0,0,1,1.7814,1.1965,5.567,5.567,0,0,1,1.2113,1.7725,5.6477,5.6477,0,0,1,0,4.3648,5.6953,5.6953,0,0,1-2.9927,3.0045,5.4592,5.4592,0,0,1-2.1876.4387H61.9189v3.68a2.74,2.74,0,0,1-2.74,2.74h0V11.2489a5.4794,5.4794,0,0,1,.4387-2.1876A5.6524,5.6524,0,0,1,60.8155,7.29,5.5779,5.5779,0,0,1,62.6,6.0923a5.5006,5.5006,0,0,1,2.1757-.4387m-2.8567,8.4771h2.8567A2.8932,2.8932,0,0,0,65.9,13.9091a2.863,2.863,0,0,0,.9173-.6129,2.8148,2.8148,0,0,0,.6174-.9218,2.8969,2.8969,0,0,0,.2216-1.1255,2.8345,2.8345,0,0,0-.22-1.1108,2.9089,2.9089,0,0,0-.6174-.91,2.8574,2.8574,0,0,0-.92-.6145,2.9085,2.9085,0,0,0-1.1226-.22,2.8361,2.8361,0,0,0-1.1122.22A2.8817,2.8817,0,0,0,62.139,10.14a2.8218,2.8218,0,0,0-.22,1.1093v2.8818m2.8567-9.2473a6.27,6.27,0,0,0-2.4784.5006,6.3425,6.3425,0,0,0-2.0263,1.3616A6.4193,6.4193,0,0,0,58.91,8.7568a6.2455,6.2455,0,0,0-.5014,2.4921V24.06h.77a3.5142,3.5142,0,0,0,3.51-3.51V17.64h2.0865a6.2247,6.2247,0,0,0,2.4942-.5024,6.4647,6.4647,0,0,0,3.3949-3.41,6.4174,6.4174,0,0,0-.0023-4.9728A6.3331,6.3331,0,0,0,69.2853,6.74,6.6063,6.6063,0,0,0,67.2682,5.385a6.246,6.246,0,0,0-2.4926-.5016Zm-2.0865,8.4771V11.2489a2.0549,2.0549,0,0,1,.1588-.8081A2.1108,2.1108,0,0,1,63.9712,9.32a2.0629,2.0629,0,0,1,.8044-.1559,2.14,2.14,0,0,1,.8268.161,2.0772,2.0772,0,0,1,.6683.4448,2.1471,2.1471,0,0,1,.4585.6747,2.0618,2.0618,0,0,1,.1566.8045,2.1339,2.1339,0,0,1-.1619.8282,2.0486,2.0486,0,0,1-.4484.6714,2.0988,2.0988,0,0,1-1.5.612Z" transform="translate(0 0)"/><path class="a" d="M81.4337,3.3235a2.3833,2.3833,0,1,0-4.7665,0,2.36,2.36,0,0,0,.557,1.5126h-.3015V17.5952h4.2554V4.8361h-.3014A2.36,2.36,0,0,0,81.4337,3.3235ZM80.4079,16.825h-2.715V5.6063h2.715Z" transform="translate(0 0)"/><circle class="c" cx="79.0504" cy="3.3235" r="1.613"/><path class="c" d="M75.8928,11.9869a2.7226,2.7226,0,0,0-.8479-.5653,2.6635,2.6635,0,0,0-2.0542,0A2.6613,2.6613,0,0,0,71.59,12.8233a2.5719,2.5719,0,0,0-.2059,1.03v2.6493h2.6368a2.5878,2.5878,0,0,0,1.0242-.2061,2.6691,2.6691,0,0,0,1.419-1.4189,2.6127,2.6127,0,0,0-.5711-2.8907Z" transform="translate(0 0)"/><path class="a" d="M74.0207,11.2156a2.5864,2.5864,0,0,1,1.0242.206,2.7226,2.7226,0,0,1,.8479.5653,2.6123,2.6123,0,0,1,.5711.8364,2.6638,2.6638,0,0,1,0,2.0543,2.6691,2.6691,0,0,1-1.419,1.4189,2.5882,2.5882,0,0,1-1.0242.2061H71.3839V13.8533a2.5719,2.5719,0,0,1,.2059-1.03,2.6613,2.6613,0,0,1,1.4009-1.4017,2.5733,2.5733,0,0,1,1.03-.206m0-.77a3.3512,3.3512,0,0,0-1.3349.269,3.43,3.43,0,0,0-1.8033,1.8041,3.3472,3.3472,0,0,0-.2689,1.3349v3.4195h3.4071a3.3655,3.3655,0,0,0,1.3258-.2676,3.4388,3.4388,0,0,0,1.8261-1.826,3.3831,3.3831,0,0,0-.74-3.7413,3.5052,3.5052,0,0,0-1.085-.7243,3.3665,3.3665,0,0,0-1.3274-.2683Z" transform="translate(0 0)"/><rect class="b" x="77.693" y="5.6063" width="2.7149" height="11.2186"/><path class="b" d="M87.0637,5.6063a5.5393,5.5393,0,0,0-2.1772.4387,5.7989,5.7989,0,0,0-1.7932,1.198A5.55,5.55,0,0,0,81.882,9.0155a5.4456,5.4456,0,0,0-.4387,2.1891v5.62H84.207v-5.62a2.8135,2.8135,0,0,1,.22-1.1108,2.8662,2.8662,0,0,1,.6145-.9114,2.9189,2.9189,0,0,1,.9113-.6145,2.7677,2.7677,0,0,1,1.1108-.2215h.2041a2.74,2.74,0,0,0,2.74-2.74H87.0637Z" transform="translate(0 0)"/><path class="a" d="M90.0078,5.6063a2.74,2.74,0,0,1-2.74,2.74h-.2041a2.7677,2.7677,0,0,0-1.1108.2215,2.9189,2.9189,0,0,0-.9113.6145,2.8662,2.8662,0,0,0-.6145.9114,2.8135,2.8135,0,0,0-.22,1.1108v5.62H81.4433v-5.62a5.4459,5.4459,0,0,1,.4387-2.1891A5.55,5.55,0,0,1,83.0933,7.243a5.8007,5.8007,0,0,1,1.7932-1.198,5.54,5.54,0,0,1,2.1772-.4387h2.9441m.77-.77H87.0637a6.3043,6.3043,0,0,0-2.4782.5,6.5715,6.5715,0,0,0-2.0329,1.3583,6.3111,6.3111,0,0,0-1.378,2.0166,6.2045,6.2045,0,0,0-.5015,2.4936v6.3906h4.3041V11.2046a2.0481,2.0481,0,0,1,.1583-.8085,2.1051,2.1051,0,0,1,.4507-.6691,2.1463,2.1463,0,0,1,.67-.4511,1.9862,1.9862,0,0,1,.8074-.1593h.2041a3.5143,3.5143,0,0,0,3.51-3.51v-.77Z" transform="translate(0 0)"/><path class="a" d="M17.6457,2.984A10.38,10.38,0,0,0,2.956,17.6514l6.86,6.86L10.3044,25l.4884-.4884,6.8558-6.8558A10.3745,10.3745,0,0,0,17.6457,2.984Z" transform="translate(0 0)"/><path class="a" d="M17.1575,3.4725a9.8037,9.8037,0,0,0-.738-.6553A9.8037,9.8037,0,0,1,17.1575,3.4725Z" transform="translate(0 0)"/><path class="a" d="M10.8108.7121c-.1645-.0077-.3289-.02-.4936-.02.013,0,.0262-.0019.0392-.0019C10.5081.6906,10.6594.705,10.8108.7121Z" transform="translate(0 0)"/><path class="a" d="M16.1532,2.6243c-.1713-.1281-.3411-.2592-.5186-.3744C15.8121,2.3651,15.9819,2.4962,16.1532,2.6243Z" transform="translate(0 0)"/><path class="a" d="M15.2863,2.047c-.1582-.0936-.3142-.1922-.4763-.276C14.9721,1.8548,15.1281,1.9534,15.2863,2.047Z" transform="translate(0 0)"/><path class="a" d="M14.4214,1.5929c-.1565-.0722-.3112-.15-.47-.2135C14.11,1.4429,14.2648,1.5207,14.4214,1.5929Z" transform="translate(0 0)"/><path class="a" d="M13.539,1.237c-.1573-.0546-.3132-.1147-.4727-.161C13.2257,1.1222,13.3816,1.1824,13.539,1.237Z" transform="translate(0 0)"/><path class="a" d="M12.6355.9721C12.4774.934,12.32.89,12.1605.86,12.32.89,12.4773.934,12.6355.9721Z" transform="translate(0 0)"/><path class="a" d="M11.7285.7987c-.1621-.0231-.3237-.0514-.4867-.0662C11.4048.7473,11.5662.7757,11.7285.7987Z" transform="translate(0 0)"/><path class="a" d="M9.8321.7158c-.15.0081-.3005.01-.45.0251C9.5316.7259,9.6819.7239,9.8321.7158Z" transform="translate(0 0)"/><path class="a" d="M8.91.81c-.1515.0228-.3037.0393-.4543.0692C8.606.8491,8.7582.8326,8.91.81Z" transform="translate(0 0)"/><path class="a" d="M7.99.994c-.1486.0374-.2986.0681-.4456.1126C7.691,1.0621,7.8408,1.0313,7.99.994Z" transform="translate(0 0)"/><path class="a" d="M7.0767,1.2718c-.1409.05-.2836.0943-.4224.1516C6.7931,1.3661,6.9358,1.3224,7.0767,1.2718Z" transform="translate(0 0)"/><path class="a" d="M6.1876,1.6426c-.1317.0628-.2658.1182-.3952.1873C5.9218,1.7608,6.0559,1.7054,6.1876,1.6426Z" transform="translate(0 0)"/><path class="c" d="M10.2,14.4558,8.2167,11.3017l-.2742.1688a1.0641,1.0641,0,0,0-.1688.1371.8884.8884,0,0,0-.2.8764.6991.6991,0,0,0,.0949.2l.6751,1.076-.5592.3482a1.86,1.86,0,1,0,2.5633.5907h0ZM9.1344,16.25a.6341.6341,0,0,1-.4958.0844.6883.6883,0,0,1-.4114-.2955.6781.6781,0,0,1,.2111-.9178l.5592-.3482.3482.5592a.6739.6739,0,0,1-.2111.9179Zm3.0487-9.62.4114,3.6921.3164-.0317a.48.48,0,0,0,.2111-.0527.8832.8832,0,0,0,.5592-.7068.7827.7827,0,0,0,0-.2215l-.1371-1.2658.6651-.0739a1.8535,1.8535,0,0,0,1.6355-2.0483l-.0011-.0092a1.8581,1.8581,0,0,0-3.6932.4124l.001.0094Zm1.74-1.15a.6582.6582,0,0,1,.5907,1.0654.6687.6687,0,0,1-.4431.2426l-.6651.0739-.074-.6651a.6737.6737,0,0,1,.5907-.7163Zm-5.5688.9071.2425.1476,3.1542,1.9831.1688-.2743a.6991.6991,0,0,0,.0949-.2.8882.8882,0,0,0-.2-.8756.6863.6863,0,0,0-.1688-.1371l-1.076-.6751.3482-.5592a1.8506,1.8506,0,0,0-.5751-2.5531l-.0159-.01A1.8733,1.8733,0,0,0,8.9236,2.99a1.818,1.818,0,0,0-1.16.8237,1.8837,1.8837,0,0,0,.5907,2.574Zm.4223-1.93a.6882.6882,0,0,1,.4114-.2954.665.665,0,0,1,.7909.5065.68.68,0,0,1-.0844.4957l-.3481.5592-.5593-.3479a.6738.6738,0,0,1-.211-.9178Zm-.549,4.8526L7.932,9.2032a.82.82,0,0,0-.2215-.0422.87.87,0,0,0-.8122.39.7933.7933,0,0,0-.0949.19l-.4219,1.2023-.6224-.232a1.8616,1.8616,0,1,0,1.1392,2.3734l.0949-.2742ZM5.78,12.6856a.6607.6607,0,1,1-1.2448-.4431.6677.6677,0,0,1,.8442-.4113l.6224.2215ZM17.1925,9.2884a1.8529,1.8529,0,0,0-2.62-.0064l-.0064.0064h0l-.2.2L11.74,12.1146l.2215.2216a1.0686,1.0686,0,0,0,.1688.1371.8572.8572,0,0,0,.8967,0,1.1508,1.1508,0,0,0,.179-.1371l.8967-.8967.464.4641a1.8536,1.8536,0,1,0,2.6976-2.543Q17.2295,9.3236,17.1925,9.2884Zm-.8442,1.7933a.6751.6751,0,0,1-.9388,0l-.4641-.4641.4641-.464a.66.66,0,0,1,.9388.9283ZM6.0106,9.3933l.2742-.0949L9.8,8.0641l-.1054-.2955a.5355.5355,0,0,0-.0949-.19.9043.9043,0,0,0-.8122-.39,1.6494,1.6494,0,0,0-.2216.0422l-1.2023.4219L7.1416,7.03A1.85,1.85,0,1,0,6.0129,9.393Zm-1.2343-1.54A.6074.6074,0,0,1,4.808,7.347a.6326.6326,0,0,1,.38-.3376.6576.6576,0,0,1,.8421.3949l.0021.0059V7.421l.2216.6224-.6211.2217a.6439.6439,0,0,1-.8309-.3726l-.0026-.007c-.0105-.021-.021-.021-.021-.0317ZM17.1516,3.4648A9.69,9.69,0,0,0,3.4486,17.1675l6.8558,6.8558L17.16,17.1675a9.684,9.684,0,0,0-.0028-13.6951L17.15,3.4648Zm-1.2765,9.768a2.5593,2.5593,0,0,1-.2848-.021.01.01,0,0,0,.01.0105h0a2.6175,2.6175,0,0,1-.4081,3.6791l-.0032.0026h0a2.6348,2.6348,0,0,1-1.6352.57,2.8085,2.8085,0,0,1-.2955-.021,2.5836,2.5836,0,0,1-1.7615-.9706,1.8642,1.8642,0,0,1-.1688-.232v.01a2.6163,2.6163,0,0,1-2.5528,2.0465,2.8061,2.8061,0,0,1-.5907-.0632,2.6252,2.6252,0,0,1-1.9726-3.1434,2.0836,2.0836,0,0,1,.074-.2743,2.6993,2.6993,0,0,1-1.15.2638,2.6611,2.6611,0,0,1-.8649-.1476,2.62,2.62,0,0,1-1.6035-3.3348h0a2.6261,2.6261,0,0,1,1.6035-1.6037,2.6224,2.6224,0,0,1,.2532-4.8418A2.662,2.662,0,0,1,5.39,5.0153a2.6072,2.6072,0,0,1,1.3912.4011V5.4059a2.5465,2.5465,0,0,1,.3376-1.9726,2.6291,2.6291,0,0,1,1.6352-1.16A2.7346,2.7346,0,0,1,9.3444,2.21a2.6176,2.6176,0,0,1,2.5527,2.0355,1.32,1.32,0,0,1,.0433.285.01.01,0,0,1,.01-.0105h.0006a2.5577,2.5577,0,0,1,1.7625-.9811,2.5827,2.5827,0,0,1,2.901,2.31,2.5738,2.5738,0,0,1-.56,1.93l-.19.2215h.0105a2.6162,2.6162,0,0,1,0,5.2322Zm-2.12-.2215L13.47,12.98l-3.6921-.411-.0317.3164a.7754.7754,0,0,0,0,.2215.8987.8987,0,0,0,.5592.7068,1.5172,1.5172,0,0,0,.211.0527l1.2658.1372-.0739.6651a1.8582,1.8582,0,1,0,2.0465-1.6562Zm.4535,1.9186a.6452.6452,0,0,1-.2425.443.6681.6681,0,0,1-1.0759-.5906l.0739-.6652.6651.074a.6776.6776,0,0,1,.58.7385Z" transform="translate(0 0)"/></svg>